<svg id="svg" version="1.1" xmlns="http://www.w3.org/2000/svg" xmlns:xlink="http://www.w3.org/1999/xlink" width="400" height="50.05347593582888" viewBox="0, 0, 400,50.05347593582888"><g id="svgg"><path id="path0" d="M60.034 11.588 C 56.064 12.491,53.150 14.957,51.429 18.868 L 51.010 19.820 52.047 20.409 C 52.617 20.733,53.796 21.271,54.667 21.605 C 57.608 22.734,59.230 25.538,62.199 34.624 L 63.083 37.332 63.583 37.230 C 72.827 35.343,76.765 30.599,76.454 21.727 L 76.377 19.538 75.656 18.184 C 73.891 14.872,71.214 12.688,67.750 11.733 C 66.355 11.349,61.486 11.257,60.034 11.588 M138.458 15.955 L 137.833 16.020 137.833 26.117 L 137.833 36.213 146.042 36.121 C 156.129 36.008,156.865 35.869,158.482 33.773 C 160.234 31.502,160.263 29.270,158.569 27.017 L 157.811 26.007 158.226 25.462 C 161.472 21.203,159.092 16.874,153.221 16.356 C 148.633 15.951,140.583 15.732,138.458 15.955 M120.358 17.102 C 119.484 18.001,118.777 19.045,117.097 21.917 C 115.917 23.933,113.608 27.782,111.966 30.470 C 110.324 33.157,108.943 35.455,108.897 35.576 C 108.665 36.179,112.997 36.369,113.872 35.794 C 114.080 35.657,114.642 34.879,115.121 34.064 C 115.600 33.250,116.050 32.486,116.121 32.368 C 116.215 32.211,117.228 32.107,119.833 31.986 C 125.166 31.739,124.691 31.866,125.707 30.406 C 126.181 29.724,126.617 29.167,126.676 29.167 C 126.825 29.167,129.095 32.591,130.172 34.441 C 131.205 36.215,131.082 36.162,134.147 36.165 L 136.044 36.167 135.953 35.610 C 135.903 35.300,134.810 33.370,133.476 31.235 C 132.163 29.135,129.694 25.092,127.990 22.250 L 124.891 17.083 123.960 16.606 C 123.448 16.344,122.680 16.090,122.252 16.041 L 121.475 15.954 120.358 17.102 M161.875 25.315 C 161.937 31.531,162.029 34.742,162.150 34.968 C 162.579 35.770,166.043 36.083,174.474 36.083 L 180.698 36.083 181.098 35.583 C 181.599 34.956,182.430 33.407,182.745 32.513 L 182.985 31.833 174.659 31.833 L 166.333 31.833 166.333 23.917 L 166.333 16.000 164.058 16.000 L 161.782 16.000 161.875 25.315 M190.184 16.335 C 181.236 19.554,179.989 30.396,188.050 34.893 C 189.708 35.818,191.843 36.052,198.786 36.070 C 205.020 36.086,204.255 36.346,205.597 33.750 L 206.544 31.917 198.625 31.744 L 190.706 31.571 190.062 31.137 C 188.937 30.382,187.333 28.612,187.563 28.381 C 187.624 28.321,190.878 28.178,194.795 28.063 C 198.712 27.948,202.001 27.850,202.105 27.844 C 202.286 27.834,204.044 25.346,204.251 24.808 C 204.499 24.162,193.527 23.771,189.439 24.280 C 188.667 24.377,188.597 24.430,187.960 25.399 L 187.292 26.417 187.388 25.306 C 187.556 23.374,188.544 21.893,190.277 20.976 C 191.082 20.549,191.092 20.549,197.667 20.360 L 204.250 20.172 204.702 19.641 C 205.145 19.122,206.193 17.120,206.412 16.375 L 206.522 16.000 198.803 16.006 C 191.592 16.012,191.024 16.033,190.184 16.335 M150.833 20.444 L 154.250 20.554 154.812 21.114 C 155.422 21.722,155.451 22.244,154.919 23.057 C 154.667 23.441,154.597 23.451,151.123 23.559 C 149.176 23.620,146.733 23.718,145.693 23.777 L 143.802 23.884 143.193 24.702 L 142.583 25.520 142.478 25.052 C 142.420 24.794,142.364 23.627,142.353 22.458 L 142.333 20.333 144.875 20.334 C 146.273 20.334,148.954 20.384,150.833 20.444 M124.226 24.557 C 124.718 25.305,125.279 26.229,125.473 26.610 L 125.825 27.304 124.397 27.423 C 123.218 27.521,119.562 27.285,119.376 27.098 C 119.351 27.073,119.712 26.389,120.179 25.578 C 120.646 24.767,121.287 23.589,121.604 22.960 L 122.179 21.817 122.756 22.507 C 123.073 22.886,123.734 23.809,124.226 24.557 M151.489 28.153 L 154.227 28.288 154.780 28.892 C 155.419 29.589,155.485 30.165,155.015 30.937 C 154.607 31.605,154.441 31.624,147.625 31.767 L 142.333 31.879 142.333 29.939 L 142.333 28.000 145.542 28.008 C 147.306 28.013,149.982 28.078,151.489 28.153 " stroke="none" fill="#ffffff" fill-rule="evenodd"></path><path id="path1" d="M252.967 17.772 C 249.388 22.776,245.886 28.437,242.935 33.989 C 242.329 35.129,241.833 36.085,241.833 36.114 C 241.833 36.214,245.627 36.166,246.161 36.059 C 246.618 35.968,246.881 35.676,247.944 34.080 L 249.191 32.208 250.470 32.109 C 251.174 32.054,252.838 31.968,254.167 31.916 C 258.222 31.758,258.089 31.824,259.343 29.368 C 259.543 28.974,259.724 28.674,259.744 28.701 C 259.764 28.728,260.743 30.313,261.919 32.223 C 264.304 36.099,264.126 35.940,266.307 36.127 C 269.898 36.434,269.898 36.619,266.328 30.917 C 265.065 28.900,262.757 25.113,261.199 22.500 C 257.513 16.321,257.353 16.142,255.287 15.899 L 254.382 15.793 252.967 17.772 M307.583 15.945 C 307.400 15.996,306.378 16.739,305.312 17.596 C 304.246 18.453,302.163 20.061,300.683 21.170 C 297.992 23.186,297.016 24.168,296.447 25.432 L 296.144 26.105 296.767 27.150 C 297.320 28.079,297.709 28.434,300.237 30.317 C 301.802 31.484,304.053 33.251,305.237 34.246 L 307.391 36.054 308.996 36.131 C 310.543 36.205,313.000 35.931,313.000 35.683 C 313.000 35.375,305.621 29.556,301.880 26.915 L 300.697 26.080 306.284 21.748 C 309.357 19.366,312.122 17.229,312.430 17.000 C 312.737 16.771,312.991 16.537,312.994 16.480 C 313.011 16.187,308.362 15.728,307.583 15.945 M211.167 16.397 C 208.837 17.370,208.218 17.964,207.126 20.271 C 205.716 23.251,206.971 25.819,210.571 27.318 L 211.862 27.855 216.984 28.072 C 220.076 28.203,222.247 28.365,222.461 28.479 C 223.380 28.971,223.616 30.228,222.947 31.064 L 222.562 31.545 215.744 31.757 L 208.926 31.969 208.547 32.443 C 208.014 33.108,207.058 34.979,206.921 35.625 L 206.807 36.167 212.778 36.157 C 224.899 36.137,226.022 35.872,227.182 32.770 C 228.554 29.100,227.733 26.272,224.909 24.935 C 222.965 24.014,221.999 23.863,216.698 23.649 C 213.905 23.536,211.654 23.375,211.531 23.278 C 211.030 22.889,210.796 22.158,211.009 21.645 C 211.436 20.615,211.676 20.559,216.167 20.441 C 218.412 20.382,221.450 20.254,222.917 20.155 L 225.583 19.976 226.041 19.453 C 226.515 18.913,227.833 16.506,227.833 16.183 C 227.833 15.760,212.211 15.961,211.167 16.397 M229.397 17.211 C 228.393 18.630,227.723 19.779,227.836 19.889 C 228.045 20.092,231.188 20.332,233.625 20.333 L 236.333 20.333 236.333 28.250 L 236.333 36.167 238.500 36.167 L 240.667 36.167 240.667 28.250 L 240.667 20.333 242.892 20.333 C 246.643 20.333,247.076 20.249,247.941 19.349 C 248.626 18.638,249.667 16.868,249.667 16.416 C 249.667 16.123,246.088 16.001,237.583 16.003 L 230.250 16.005 229.397 17.211 M274.333 16.316 C 265.381 19.230,263.885 30.123,271.791 34.820 C 273.479 35.823,275.468 36.052,282.643 36.070 L 288.036 36.083 288.512 35.513 C 288.969 34.967,290.025 32.960,290.236 32.238 C 290.337 31.894,290.313 31.892,282.460 31.727 C 273.693 31.542,274.200 31.616,272.814 30.309 C 270.018 27.672,270.736 22.973,274.233 21.022 L 275.083 20.548 281.575 20.354 C 287.926 20.166,288.076 20.153,288.462 19.791 C 288.840 19.435,290.033 17.158,290.251 16.375 L 290.356 16.000 282.803 16.009 C 276.013 16.017,275.157 16.048,274.333 16.316 M291.833 26.083 L 291.833 36.167 293.833 36.167 L 295.833 36.167 295.833 26.083 L 295.833 16.000 293.833 16.000 L 291.833 16.000 291.833 26.083 M48.667 19.848 C 43.911 20.461,40.923 24.091,40.930 29.250 C 40.935 32.750,42.464 34.979,46.265 37.029 L 47.553 37.724 51.985 37.839 C 56.824 37.965,73.577 37.892,76.250 37.733 C 82.542 37.361,86.517 30.610,83.830 24.859 C 82.844 22.749,78.584 19.833,76.487 19.833 C 76.420 19.833,76.405 20.716,76.455 21.795 C 76.597 24.883,75.908 28.042,74.468 30.896 C 72.950 33.905,69.211 36.081,63.583 37.230 L 63.083 37.332 62.199 34.624 C 59.343 25.882,57.557 22.688,55.000 21.751 C 54.313 21.500,53.061 20.927,52.219 20.480 C 50.624 19.632,50.507 19.612,48.667 19.848 M256.380 23.208 C 258.056 25.851,258.858 27.198,258.793 27.262 C 258.650 27.406,254.142 27.501,253.132 27.382 L 252.014 27.250 252.902 25.959 C 253.391 25.249,254.117 23.955,254.517 23.084 C 254.917 22.213,255.256 21.500,255.270 21.500 C 255.285 21.500,255.785 22.269,256.380 23.208 " stroke="none" fill="#ffffff" fill-rule="evenodd"></path></g></svg>